<svg width="550" height="550" viewBox="0 0 550 550" fill="none" xmlns="http://www.w3.org/2000/svg">
<path d="M145.639 108.332C200.009 146.995 207.001 184.54 218.926 235.922C219.843 239.874 225.273 239.058 225.099 235.005C221.989 162.338 219.685 112.831 163.892 63.6462C162.122 62.0856 159.324 62.8013 158.525 65.0218L144.364 104.375C143.846 105.816 144.391 107.444 145.639 108.332Z" fill="#FDCF00" stroke="black" stroke-width="11.8452"/>
<circle cx="138.827" cy="76.139" r="33.8435" transform="rotate(-19.6366 138.827 76.139)" fill="#FDCF00" stroke="black" stroke-width="11.8452"/>
<circle cx="283.912" cy="341.643" r="187.831" transform="rotate(-7.63663 283.912 341.643)" fill="#FDCF00" stroke="black" stroke-width="33.8435"/>
<path d="M235.957 506.084C358.671 483.396 412.584 448.078 451.404 307.535C476.047 435.676 366.915 539.879 235.957 506.084Z" fill="#DA7508"/>
<path d="M277.484 427.408C198.193 339.015 248.335 477.414 127.377 447.534L193.808 504.916C194.541 505.55 195.514 505.839 196.473 505.704C256.186 497.259 306.12 464.202 277.484 427.408Z" fill="white" stroke="black" stroke-width="21.9983"/>
<path d="M342.884 246.663L241.842 308.015C241.842 308.015 258.271 355.627 284.432 364.622C303.034 371.018 334.116 353.136 358.383 335.692C378.977 320.888 380.855 291.968 364.564 272.53L342.884 246.663Z" fill="black" stroke="black" stroke-width="21.9983"/>
<path d="M335.004 257.282L256.709 303.959C256.709 303.959 267.259 317.496 280.934 325.467C289.021 330.181 308.429 321.924 326.27 312.172C346.308 301.219 349.71 274.752 335.004 257.282Z" fill="white"/>
<path d="M196.068 338.55C247.578 289.576 245.249 279.205 347.432 219.793C298.388 223.718 265.115 234.156 197.678 299.507C195.207 301.902 191.215 299.605 192.374 296.365C193.823 292.315 195.546 288.408 197.875 284.089C199.664 280.772 195.664 276.965 192.826 279.445C182.458 288.507 174.547 300.222 165.348 327.788C164.948 328.987 165.251 330.339 166.156 331.223C175.534 340.386 182.052 342.737 194.634 339.364C195.165 339.221 195.67 338.928 196.068 338.55Z" fill="black" stroke="black" stroke-width="5.07653" stroke-linejoin="round"/>
<path d="M114.153 324.432C193.009 167.424 303.549 130.108 436.619 265.29C363.395 118.138 136.683 142.781 114.153 324.432Z" fill="white"/>
<path d="M210.149 92.8528C264.519 131.516 271.511 169.061 283.436 220.443C284.353 224.395 289.783 223.58 289.609 219.527C286.499 146.859 284.195 97.352 228.402 48.1674C226.632 46.6069 223.834 47.3225 223.035 49.543L208.874 88.8963C208.356 90.3368 208.901 91.9655 210.149 92.8528Z" fill="#FDCF00" stroke="black" stroke-width="11.8452"/>
<circle cx="203.338" cy="60.6602" r="33.8435" transform="rotate(-19.6366 203.338 60.6602)" fill="#FDCF00" stroke="black" stroke-width="11.8452"/>
</svg>
